<?xml version="1.0" encoding="utf-8"?>
<!-- Generator: Adobe Illustrator 17.0.0, SVG Export Plug-In . SVG Version: 6.00 Build 0)  -->
<!DOCTYPE svg PUBLIC "-//W3C//DTD SVG 1.1//EN" "http://www.w3.org/Graphics/SVG/1.1/DTD/svg11.dtd">
<svg version="1.1" id="Camada_1" xmlns="http://www.w3.org/2000/svg" xmlns:xlink="http://www.w3.org/1999/xlink" x="0px" y="0px"
	 width="841.89px" height="595.28px" viewBox="0 0 841.89 595.28" enable-background="new 0 0 841.89 595.28" xml:space="preserve">
<g id="Layer_1">
	<g>
		<circle opacity="0.26" fill="#FFFFFF" enable-background="new    " cx="434.496" cy="306.055" r="127.713"/>
		<g>
			<g id="a">
				<g>
					<path fill="#FFFFFF" d="M432.64,443.049c-37.621,0-70.168-13.489-96.775-40.22c-26.607-26.731-40.22-59.278-40.22-96.898
						c0-37.497,13.489-70.044,40.096-96.775c26.854-26.731,59.401-40.22,96.898-40.22c37.621,0,70.168,13.489,96.898,40.22
						c26.607,26.854,40.096,59.401,40.096,96.898c0,37.621-13.489,70.168-39.972,96.775
						C502.931,429.56,470.26,443.049,432.64,443.049z M432.64,188.738c-32.547,0-59.649,11.262-82.791,34.403
						c-23.142,23.266-34.403,50.367-34.403,82.791c0,32.547,11.261,59.649,34.403,82.791s50.244,34.403,82.791,34.403
						s59.773-11.262,82.914-34.403c23.018-23.142,34.28-50.244,34.28-82.791s-11.262-59.649-34.28-82.914
						C492.412,199.999,465.31,188.738,432.64,188.738z"/>
				</g>
			</g>
		</g>
		<path fill="#FFFFFF" d="M387.717,247.025c0-3.713,1.485-6.435,4.579-8.291c2.97-1.238,6.064-0.866,9.034,0.866l95.042,57.545
			c5.445,4.208,5.445,8.786,0,13.737l-95.042,61.381c-2.97,1.856-6.064,1.856-9.034,0c-2.97-1.238-4.579-3.713-4.579-7.301V247.025z
			"/>
	</g>
</g>
</svg>
