<?xml version="1.0" encoding="utf-8"?>
<!-- Generator: Adobe Illustrator 18.1.1, SVG Export Plug-In . SVG Version: 6.00 Build 0)  -->
<svg version="1.1" xmlns="http://www.w3.org/2000/svg" xmlns:xlink="http://www.w3.org/1999/xlink" x="0px" y="0px"
	 viewBox="0 0 680.3 340.2" enable-background="new 0 0 680.3 340.2" xml:space="preserve">
<g id="Layer_2">
	<rect fill="#353535" width="680.3" height="349.2"/>
</g>
<g id="Layer_1">
	<g>
		<circle opacity="0.26" fill="#FFFFFF" cx="351.1" cy="176.9" r="103.2"/>
		<g>
			<g id="a">
				<g>
					<path fill="#FFFFFF" d="M349.6,287.6c-30.4,0-56.7-10.9-78.2-32.5c-21.5-21.6-32.5-47.9-32.5-78.3c0-30.3,10.9-56.6,32.4-78.2
						C293,77,319.3,66.1,349.6,66.1c30.4,0,56.7,10.9,78.3,32.5c21.5,21.7,32.4,48,32.4,78.3c0,30.4-10.9,56.7-32.3,78.2
						C406.4,276.7,380,287.6,349.6,287.6z M349.6,82.1c-26.3,0-48.2,9.1-66.9,27.8c-18.7,18.8-27.8,40.7-27.8,66.9
						c0,26.3,9.1,48.2,27.8,66.9s40.6,27.8,66.9,27.8c26.3,0,48.3-9.1,67-27.8c18.6-18.7,27.7-40.6,27.7-66.9
						c0-26.3-9.1-48.2-27.7-67C397.9,91.2,376,82.1,349.6,82.1z"/>
				</g>
			</g>
		</g>
		<path fill="#FFFFFF" d="M313.3,129.2c0-3,1.2-5.2,3.7-6.7c2.4-1,4.9-0.7,7.3,0.7l76.8,46.5c4.4,3.4,4.4,7.1,0,11.1l-76.8,49.6
			c-2.4,1.5-4.9,1.5-7.3,0c-2.4-1-3.7-3-3.7-5.9V129.2z"/>
	</g>
</g>
</svg>
